<?xml version="1.0" encoding="utf-8"?>
<!-- Generator: Adobe Illustrator 27.2.0, SVG Export Plug-In . SVG Version: 6.00 Build 0)  -->
<svg version="1.1" id="Layer_1" xmlns="http://www.w3.org/2000/svg" xmlns:xlink="http://www.w3.org/1999/xlink" x="0px" y="0px"
	 viewBox="0 0 547.1 63" style="enable-background:new 0 0 547.1 63;" xml:space="preserve">
<style type="text/css">
	.st0{fill:#BF5700;}
	.st1{fill:#333F48;}
</style>
<g>
	<g>
		<g>
			<g>
				<polygon class="st0" points="24.4,21.1 24.5,21.1 24.5,21 24.4,21 				"/>
				<path class="st0" d="M30.8,15.8c-1.3-0.2-2.6-0.4-3.7-0.4c-0.6,0-1.1,0.1-1.6,0.2l-0.3-7.4V6.9c0.5-0.2,1.2-0.3,2-0.3
					c1,0,2.2,0.2,3.5,0.4c1.1,0.2,2.2,0.3,3.4,0.4l0.3,8.9C33.1,16.1,31.9,15.9,30.8,15.8L30.8,15.8z M18.1,15.8
					c-1.2,0.2-2.4,0.4-3.6,0.4l0.3-8.9c1.2-0.1,2.3-0.2,3.4-0.4c1.3-0.2,2.4-0.4,3.5-0.4c0.8,0,1.4,0.1,2,0.3V8l-0.3,7.4
					c-0.5-0.1-1-0.2-1.6-0.2C20.7,15.4,19.4,15.6,18.1,15.8L18.1,15.8z M36.9,10.5V8.8h-1V6h-0.7c-1.5,0-3-0.2-4.4-0.4
					c-1.3-0.2-2.5-0.4-3.7-0.4c-1.1,0-2,0.2-2.7,0.5c-0.7-0.3-1.6-0.5-2.7-0.5S19.3,5.4,18,5.6C16.6,5.8,15.2,6,13.7,6H13v2.9h-1
					v1.7h1v2.3h-1v1.7h1v3.1h0.7c1.6,0,3.1-0.2,4.7-0.5c1.3-0.2,2.5-0.4,3.5-0.4c0.8,0,1.5,0.1,1.9,0.4l0,0h1.4l0,0
					c0.5-0.3,1.1-0.4,1.9-0.4c1,0,2.2,0.2,3.5,0.4c1.5,0.2,3.1,0.5,4.7,0.5H36v-3.1h1v-1.7h-1v-2.3L36.9,10.5L36.9,10.5z"/>
				<path class="st0" d="M18.3,8.2c-0.1,0-0.1,0-0.2,0c-0.7,0.1-1.3,0.2-2,0.3v1.1c0.7-0.1,1.5-0.2,2.2-0.3l0,0V8.2L18.3,8.2z"/>
				<path class="st0" d="M19.1,8.1v1.1C20.3,9,21.4,8.9,22.3,9V7.9C21.4,7.8,20.3,7.9,19.1,8.1L19.1,8.1z"/>
				<path class="st0" d="M18.3,13.3c-0.1,0-0.1,0-0.2,0c-0.7,0.1-1.5,0.2-2.2,0.3v1.1c0.8-0.1,1.6-0.2,2.4-0.3l0,0V13.3L18.3,13.3z"
					/>
				<path class="st0" d="M19.1,13.2v1.1c1.1-0.2,2.2-0.3,3.1-0.2V13C21.3,13,20.2,13.1,19.1,13.2L19.1,13.2z"/>
				<path class="st0" d="M18.1,10.8v1.1h0.1c1.5-0.2,2.9-0.4,4-0.3v-1.1C21,10.4,19.6,10.6,18.1,10.8L18.1,10.8z"/>
				<path class="st0" d="M17.3,10.9C16.9,11,16.4,11,16,11.1v1.1c0.4,0,0.9-0.1,1.3-0.2V10.9L17.3,10.9z"/>
				<path class="st0" d="M29.2,8c-1-0.1-1.9-0.2-2.8-0.1V9c0.8-0.1,1.7,0,2.7,0.1L29.2,8L29.2,8z"/>
				<path class="st0" d="M32.8,8.5c-0.7-0.1-1.3-0.2-2-0.3c-0.2,0-0.5-0.1-0.7-0.1v1.1c0.2,0,0.4,0.1,0.6,0.1
					c0.7,0.1,1.5,0.2,2.2,0.3L32.8,8.5L32.8,8.5z"/>
				<path class="st0" d="M29,10.6c-0.9-0.1-1.7-0.2-2.4-0.1v1.1c0.7,0,1.5,0,2.4,0.1V10.6L29,10.6z"/>
				<path class="st0" d="M32.9,11.1c-0.7-0.1-1.4-0.2-2.1-0.3c-0.3,0-0.6-0.1-1-0.1v1.1c0.3,0,0.5,0.1,0.8,0.1
					c0.8,0.1,1.5,0.2,2.3,0.3V11.1L32.9,11.1z"/>
				<path class="st0" d="M30.7,14.5c0.8,0.1,1.5,0.2,2.3,0.3v-1.1c-0.7-0.1-1.5-0.2-2.2-0.3h-0.1L30.7,14.5L30.7,14.5z"/>
				<path class="st0" d="M29.8,13.2c-1.1-0.2-2.2-0.3-3.2-0.2v1.1c0.9-0.1,2,0.1,3.2,0.2V13.2L29.8,13.2z"/>
				<path class="st0" d="M23,31.4l1.5-3.7l1.5,3.7l3.9,0.3l-3,2.5l1,3.8l-3.3-2.1L21.1,38l1-3.8l-3-2.5L23,31.4L23,31.4z M14.1,30.1
					L14.1,30.1l6.4,4.6L18,42.2l0,0l0,0l6.4-4.7l6.4,4.7l0,0c0,0,0,0,0-0.1l-2.4-7.5l6.3-4.6l0,0c0,0,0,0,0-0.1c0,0,0,0-0.1,0l0,0
					h-7.8l-2.4-7.5l0,0c0,0,0-0.1-0.1-0.1s-0.1,0-0.1,0.1l0,0L22,30h-7.9l0,0C14.1,30,14,30,14.1,30.1C14,30,14,30.1,14.1,30.1
					L14.1,30.1z"/>
				<path class="st0" d="M40.2,39.5c-0.6,0.6-1.3,1.1-2.1,1.3c0.1-0.8,0.5-1.6,1.1-2.3c0.6-0.6,1.3-1.1,2.1-1.3
					C41.1,38.1,40.8,38.9,40.2,39.5L40.2,39.5z M37.1,34.6c-0.1-0.8,0-1.7,0.4-2.5c0.6,0.6,0.9,1.4,1,2.3c0.1,0.8,0,1.7-0.4,2.5
					C37.6,36.2,37.2,35.4,37.1,34.6L37.1,34.6z M38.8,28.2c-0.2-0.8-0.1-1.7,0.3-2.5c0.6,0.6,1,1.4,1.2,2.2c0.2,0.8,0.1,1.7-0.3,2.5
					C39.4,29.8,39,29,38.8,28.2L38.8,28.2z M42.9,30c0.1,0.8-0.1,1.7-0.6,2.4c-0.4,0.7-1.1,1.3-1.8,1.7c-0.1-0.8,0.1-1.7,0.6-2.4
					C41.5,31,42.1,30.4,42.9,30L42.9,30z M36.7,46c-0.7,0.5-1.5,0.8-2.4,0.8c0.3-0.8,0.8-1.5,1.5-2s1.5-0.8,2.4-0.8
					C37.9,44.8,37.4,45.5,36.7,46L36.7,46z M34.7,40.5c0.1-0.9,0.4-1.7,0.9-2.3c0.4,0.7,0.6,1.6,0.5,2.4c-0.1,0.9-0.4,1.7-0.9,2.3
					C34.8,42.2,34.6,41.4,34.7,40.5L34.7,40.5z M32.5,46.3c-0.2,0.8-0.7,1.5-1.4,2.1c-0.3-0.8-0.3-1.7,0-2.5
					c0.2-0.8,0.7-1.5,1.4-2.1C32.7,44.6,32.7,45.4,32.5,46.3L32.5,46.3z M33.7,50c-0.4,0.7-1.1,1.3-1.9,1.6
					c-0.5,0.2-1.1,0.4-1.7,0.4l0,0c-0.3,0-0.5,0-0.8-0.1c0.4-0.7,1.1-1.3,1.9-1.6C32.1,49.9,32.9,49.8,33.7,50L33.7,50z M26.4,50.3
					c0.4-0.8,1-1.4,1.8-1.7c0.1,0.8-0.1,1.7-0.5,2.4c-0.4,0.8-1,1.4-1.8,1.7C25.8,51.9,26,51,26.4,50.3L26.4,50.3z M16.9,51.6
					c-0.8-0.3-1.4-0.9-1.9-1.6c0.8-0.2,1.7-0.1,2.5,0.3c0.8,0.3,1.4,0.9,1.9,1.6C18.6,52,17.7,51.9,16.9,51.6L16.9,51.6z M16.3,46.2
					c-0.2-0.8-0.2-1.7,0-2.5c0.7,0.5,1.1,1.3,1.4,2.1c0.2,0.8,0.2,1.7,0,2.5C17,47.8,16.6,47.1,16.3,46.2L16.3,46.2z M20.6,48.5
					c0.7,0.4,1.4,1,1.8,1.7c0.4,0.8,0.6,1.6,0.5,2.4c-0.8-0.4-1.4-1-1.8-1.7S20.5,49.4,20.6,48.5L20.6,48.5z M12.1,46
					c-0.7-0.5-1.2-1.2-1.5-2c0.8,0,1.7,0.3,2.4,0.8s1.2,1.2,1.5,2C13.6,46.8,12.8,46.5,12.1,46L12.1,46z M13.2,38.2
					c0.5,0.7,0.8,1.5,0.9,2.3c0.1,0.9-0.1,1.7-0.5,2.4c-0.5-0.7-0.8-1.5-0.9-2.3C12.6,39.8,12.8,38.9,13.2,38.2L13.2,38.2z
					 M8.6,39.5c-0.6-0.6-0.9-1.4-1.1-2.3c0.8,0.2,1.6,0.6,2.1,1.3c0.6,0.6,0.9,1.4,1.1,2.3C9.9,40.6,9.2,40.2,8.6,39.5L8.6,39.5z
					 M8.3,34.1c-0.8-0.4-1.4-0.9-1.8-1.7C6,31.7,5.8,30.9,5.9,30c0.8,0.4,1.4,0.9,1.8,1.7C8.2,32.5,8.4,33.3,8.3,34.1L8.3,34.1z
					 M8.5,27.9c0.2-0.8,0.6-1.6,1.2-2.2c0.3,0.8,0.4,1.6,0.3,2.5c-0.2,0.8-0.6,1.6-1.2,2.2C8.5,29.6,8.4,28.7,8.5,27.9L8.5,27.9z
					 M10.2,34.4c0.1-0.8,0.5-1.6,1-2.3c0.4,0.8,0.5,1.6,0.4,2.5c-0.1,0.8-0.5,1.6-1,2.3C10.2,36.1,10.1,35.2,10.2,34.4L10.2,34.4z
					 M40.2,35.5c1.3-0.4,2.4-1.3,3.1-2.4c0.7-1.2,0.9-2.6,0.6-3.9l-0.1-0.6l-0.6,0.2c-0.7,0.2-1.3,0.5-1.8,0.9c0.1-0.7,0.1-1.3,0-2
					c-0.3-1.3-1-2.5-2.1-3.3L38.8,24l-0.3,0.5c-0.7,1.2-1,2.5-0.7,3.9c0.3,1.3,1,2.5,2.1,3.3c-0.2,0.5-0.3,0.9-0.4,1.4
					c-0.3-0.9-0.9-1.7-1.6-2.3l-0.5-0.4L37,30.9c-0.8,1.1-1.1,2.5-1,3.8c0.2,1.3,0.9,2.6,1.9,3.4l0,0c-0.3,0.4-0.6,0.9-0.7,1.4
					c-0.1-0.9-0.5-1.8-1.1-2.6l-0.4-0.5l-0.4,0.4c-1,0.9-1.6,2.2-1.7,3.5c-0.1,1.4,0.3,2.7,1.2,3.8l0,0c-0.4,0.3-0.7,0.7-1,1.2
					c0.1-0.9-0.1-1.9-0.6-2.8L32.9,42l-0.5,0.3c-1.2,0.7-2,1.8-2.4,3.1s-0.3,2.7,0.4,3.9l0,0c-0.5,0.3-0.9,0.6-1.2,1
					c0.3-0.9,0.3-1.9,0-2.8L29,47l-0.6,0.2c-1.3,0.4-2.4,1.3-3,2.5s-0.8,2.5-0.5,3.8c-0.2,0.1-0.4,0.2-0.5,0.4
					c-0.2-0.1-0.4-0.3-0.5-0.4c0.3-1.3,0.1-2.6-0.5-3.8s-1.7-2.1-3-2.5L19.8,47l-0.2,0.6c-0.2,0.9-0.2,1.9,0,2.8
					c-0.4-0.4-0.8-0.7-1.2-1l0,0c0.6-1.2,0.7-2.6,0.4-3.9c-0.4-1.3-1.2-2.4-2.4-3.1l-0.5-0.3l-0.3,0.5c-0.4,0.9-0.6,1.8-0.6,2.8
					c-0.3-0.4-0.6-0.8-1-1.2l0,0c0.9-1.1,1.3-2.4,1.2-3.8c-0.1-1.4-0.7-2.6-1.7-3.5l-0.4-0.4L12.7,37c-0.6,0.8-1,1.7-1.1,2.6
					c-0.2-0.5-0.4-0.9-0.7-1.4l0,0c1.1-0.9,1.7-2.1,1.9-3.4c0.2-1.4-0.2-2.7-1-3.8l-0.4-0.5L11,30.8c-0.7,0.6-1.3,1.4-1.6,2.3
					c-0.1-0.5-0.2-1-0.4-1.4c1.1-0.8,1.8-2,2.1-3.3s0-2.7-0.7-3.9L10,24l-0.5,0.4c-1.1,0.8-1.9,2-2.1,3.3c-0.1,0.7-0.1,1.3,0,2
					c-0.5-0.4-1.1-0.7-1.8-0.9L5,28.5l-0.1,0.6c-0.3,1.3-0.1,2.7,0.6,3.9c0.7,1.2,1.8,2,3.1,2.4l0.5,0.2c0.1,0.4,0.2,0.8,0.3,1.3
					C8.7,36.4,7.9,36.1,7,36H6.4v0.6c0,1.4,0.5,2.7,1.4,3.7s2.2,1.6,3.5,1.7h0.5c0.1,0.4,0.3,0.8,0.6,1.2c-0.6-0.2-1.2-0.3-1.9-0.3
					c-0.2,0-0.5,0-0.7,0L9.2,43l0.1,0.6c0.3,1.3,1,2.5,2.1,3.3c0.9,0.7,2,1,3.1,1c0.2,0,0.4,0,0.7,0l0.5-0.1c0.2,0.4,0.5,0.7,0.8,1
					c-0.9-0.1-1.7-0.1-2.6,0.2l-0.6,0.2l0.2,0.6c0.5,1.3,1.5,2.3,2.8,2.8c0.7,0.3,1.4,0.5,2.2,0.5c0.6,0,1.2-0.1,1.8-0.3l0.4-0.1
					c0.7,0.6,1.5,1.2,2.6,1.9c-0.5,0.3-1,0.7-1.7,1.1l1.1,0.7c0.6-0.4,1.1-0.7,1.6-1.1c0.5,0.3,1,0.7,1.6,1.1l1.1-0.7
					c-0.6-0.4-1.2-0.7-1.7-1.1c1.1-0.7,1.9-1.3,2.6-1.9l0.4,0.1c0.6,0.2,1.2,0.3,1.8,0.3l0,0c0.8,0,1.5-0.2,2.2-0.5
					c1.2-0.6,2.2-1.6,2.8-2.8l0.2-0.6L34.7,49c-0.8-0.3-1.7-0.4-2.6-0.2c0.3-0.3,0.6-0.6,0.8-1l0.5,0.1c0.2,0,0.4,0,0.7,0l0,0
					c1.1,0,2.2-0.4,3.1-1c1.1-0.8,1.9-2,2.1-3.3l0.1-0.6L39,42.9c-0.2,0-0.5,0-0.7,0c-0.6,0-1.3,0.1-1.9,0.3
					c0.2-0.4,0.4-0.7,0.6-1.2h0.5c1.4-0.1,2.6-0.7,3.5-1.7s1.4-2.3,1.4-3.7V36h-0.6c-0.9,0.1-1.7,0.4-2.4,0.8
					c0.2-0.4,0.3-0.8,0.3-1.3H40.2L40.2,35.5z"/>
				<path class="st0" d="M40.3,47.3c-1.1,1.7-2.5,3.2-4,4.7c-4.9,4.5-10.3,7-11.9,7.7c-1.5-0.6-7-3.1-11.9-7.6
					c-1.6-1.5-2.9-3.1-4-4.7C3,39.2,2.3,29.8,2.2,22.5l0,0l22.2-1.2l22.2,1.2C46.6,29.8,45.9,39.2,40.3,47.3L40.3,47.3z M3.4,3.7
					c4.1-0.5,13.4-1.4,21-1.4s16.9,0.9,21,1.4l1.2,16.2H24.4H2.3L3.4,3.7L3.4,3.7z M48.9,1.8l-1-0.1C47.7,1.7,34.6,0,24.4,0l0,0l0,0
					C14.2,0,1.1,1.7,1,1.7L0,1.8v18.1l0,0v2.5C0,30.1,0.8,40,6.7,48.6c1.2,1.8,2.6,3.4,4.3,5l0,0l0,0c3.2,3.1,7.4,6,13.5,9.4l0,0
					l0,0l0,0l0,0c6.1-3.4,10.3-6.3,13.5-9.4l0,0l0,0c1.7-1.6,3-3.2,4.3-5C48.2,40,49,30.1,49,22.5v-0.4l0,0L48.9,1.8L48.9,1.8z"/>
			</g>
			<g>
				<path class="st0" d="M83.9,19.9L81.7,20l-0.1-0.8l1.1-0.2v-6.7c0-1.2-0.6-1.7-1.5-1.7c-0.7,0-1.6,0.5-2.5,1.1L78.1,12v7l1.3,0.2
					L79.2,20L77,19.9L74.6,20l-0.1-0.8l1.4-0.2V4.7L75,4.8l-4.7-0.1v14.1l2.7,0.3L72.8,20L69,19.9L65.1,20L65,19.2l2.8-0.3V4.8
					l-3.5,0.1l-1.1,2.9h-0.9V3.6H69h5.7l2.5-0.3H78v7.6l3.4-2.2c3,0,3.5,1.1,3.5,4.1V19l1.7,0.2V20L83.9,19.9z"/>
				<path class="st0" d="M90,14c0,2.7,1.4,4.5,3.9,4.5c0.9,0,2.1-0.4,2.9-1l0.4,0.9c-1.1,0.8-2.6,1.4-4.1,1.8c-2.8,0-5.4-2-5.4-5.7
					c0-3.5,2.1-5.3,5.3-6c3.1,0,4.1,1.9,4.1,4.4v1H90V14z M94.7,12.9c0-1.8-0.3-3-2.1-3c-1.4,0-2.3,1.3-2.5,3.3L94.7,12.9z"/>
				<path class="st0" d="M113.2,4.4l0.1-0.8l3,0.1l2.7-0.1l0.1,0.8l-2,0.3v9.5c0,3-1.2,5.1-5.9,6.1c-4.6,0-6.2-2.5-6.2-6.2V4.8
					l-2-0.4l0.1-0.8l3.2,0.1l3.2-0.1l0.1,0.8l-2,0.3v9.8c0,2.9,1.2,4.5,3.9,4.5c2.4,0,3.8-1.6,3.8-4.6V4.8L113.2,4.4z"/>
				<path class="st0" d="M122.3,19.9l-2.7,0.1l-0.1-0.8l1.6-0.2v-8.5l-1.6,0.1l-0.1-0.8l2.8-0.7l1-0.1l0.1,2l3.5-2.3
					c3,0,3.5,1,3.5,3.8V19l1.8,0.2L132,20l-2.7-0.1L127,20l-0.1-0.8L128,19v-6.7c0-1.2-0.5-1.7-1.5-1.7c-0.8,0-1.6,0.5-2.4,1.1
					l-0.7,0.5V19l1.3,0.2l-0.1,0.8L122.3,19.9z"/>
				<path class="st0" d="M135.7,19.9L133,20l-0.1-0.8l1.6-0.2v-8.5l-1.6,0.1l-0.1-0.8l2.8-0.7l1.2-0.1v10l1.7,0.2l-0.1,0.8
					L135.7,19.9z M134.5,3.9l1.7-0.1l0.7,0.1l0.1,1.3l-0.3,1.1L135,6.5l-0.6-0.1L134.3,5L134.5,3.9z"/>
				<path class="st0" d="M145,18.5l2.8-8.4l-1.1-0.2l0.1-0.8l2.1,0.1l1.9-0.1l0.1,0.8l-1.5,0.2l-3.8,9.6l-1.7,0.7l-4-10.4l-1.4-0.2
					l0.1-0.8l2.7,0.1l2.4-0.1l0.1,0.8l-1.5,0.2l2.5,6.8L145,18.5z"/>
				<path class="st0" d="M153.3,14c0,2.7,1.4,4.5,3.9,4.5c0.9,0,2.1-0.4,2.9-1l0.4,0.9c-1.1,0.8-2.6,1.4-4.1,1.8
					c-2.8,0-5.4-2-5.4-5.7c0-3.5,2.1-5.3,5.3-6c3.1,0,4.1,1.9,4.1,4.4v1h-7.1V14z M158,12.9c0-1.8-0.3-3-2.1-3
					c-1.4,0-2.3,1.3-2.5,3.3L158,12.9z"/>
				<path class="st0" d="M165.6,12.1l2.7-3.3h1.9v2.3h-1.7c-0.6,0.1-1.6,0.9-2.2,1.7l-0.5,0.6V19l2.4,0.2l-0.1,0.9l-3.4-0.1
					l-2.6,0.1l-0.1-0.8l1.6-0.2v-8.5l-1.6,0.1l-0.1-0.8l2.8-0.7l0.9-0.1L165.6,12.1z"/>
				<path class="st0" d="M177.5,10.3c-0.2-0.1-0.9-0.5-1.8-0.5c-0.9,0-1.8,0.5-1.8,1.4c0,0.7,0.6,1.2,1.6,1.7l1.8,0.9
					c1.6,0.8,2.2,1.7,2.2,3c0,2.1-1.7,2.9-4.4,3.5c-1.4,0-2.9-0.7-3.5-1.1l-0.4-2.6h1.5l0.8,1.9c0.5,0.3,1.2,0.6,1.9,0.6
					c1.2,0,1.9-0.8,1.9-1.8c0-0.9-0.5-1.3-1.7-1.9l-1.8-1c-1-0.5-2-1.4-2-2.7c0-1.6,1.5-2.5,4.2-3.1c1.3,0,2.6,0.6,3.3,1.1V12H178
					L177.5,10.3z"/>
				<path class="st0" d="M183.9,19.9l-2.7,0.1l-0.1-0.8l1.6-0.2v-8.5l-1.6,0.1L181,9.8l2.8-0.7L185,9v10l1.7,0.2l-0.1,0.8
					L183.9,19.9z M182.8,3.9l1.7-0.1l0.7,0.1l0.1,1.3L185,6.3l-1.7,0.1l-0.6-0.1L182.5,5L182.8,3.9z"/>
				<path class="st0" d="M195.5,25.5v-2.3h2l2.3-3.5l-0.9,0.3l-3.9-9.8h-3.5v7.1c0,0.7,0.3,1.4,1.2,1.4c0.7,0,1.4-0.3,2.1-0.7
					l0.4,0.8l-2.9,1.6c-2.6,0-3-0.9-3-3v-7H187V10l0.8-0.8h1.5V7.6l1.5-1.5h0.6V9h7.3l0.1,0.8l-1.5,0.2l2.6,6.8l0.2,1.6L203,10
					l-1.1-0.2L202,9l2.1,0.1L206,9l0.1,0.8l-1.5,0.2l-3.8,9.5l-2.6,5.9h-2.7V25.5z"/>
				<path class="st0" d="M221.5,14.3c0,3.5-2.1,5.5-5.7,6.1c-3.1,0-5.2-2.4-5.2-5.6c0-3.5,2.1-5.5,5.7-6.1
					C219.4,8.7,221.5,11.1,221.5,14.3z M216.4,19.2c1.9,0,2.8-1.9,2.8-4.4c0-3-1.4-4.9-3.5-4.9c-1.9,0-2.8,1.9-2.8,4.5
					C212.9,16.9,214.3,19.2,216.4,19.2z"/>
				<path class="st0" d="M226.8,9.3h2.9v1.1h-2.9V19l2.7,0.2l-0.1,0.9l-3.6-0.1H223l-0.1-0.8l1.6-0.2v-8.6h-2.1V10l0.7-0.8h1.4V8.9
					c0-1.4,0.4-2.3,1.3-3.3l2-2.2h2.9v1.9h-3l-0.4,0.6c-0.3,0.4-0.5,1.1-0.5,2.6L226.8,9.3L226.8,9.3z"/>
				<path class="st0" d="M247.5,20l-3.8-0.1l-3.9,0.1l-0.1-0.8l2.8-0.3V4.8H239l-1.1,3H237V3.6l6.7,0.1l6.7-0.1v4.1h-0.9l-1.1-3
					h-3.5v14.1l2.7,0.3L247.5,20z"/>
				<path class="st0" d="M251.7,14c0,2.7,1.4,4.5,3.9,4.5c0.9,0,2.1-0.4,2.9-1l0.4,0.9c-1.1,0.8-2.6,1.4-4.1,1.8
					c-2.8,0-5.4-2-5.4-5.7c0-3.5,2.1-5.3,5.3-6c3.1,0,4.1,1.9,4.1,4.4v1h-7.1V14z M256.4,12.9c0-1.8-0.3-3-2.1-3
					c-1.4,0-2.3,1.3-2.5,3.3L256.4,12.9z"/>
				<path class="st0" d="M264.1,19.2L264,20l-1.8-0.1l-2.4,0.1l-0.1-0.8l1.6-0.2l3.5-4.2l-3.4-4.6L260,10l0-1l2.7,0.1l2.2-0.1
					l0.1,0.8l-0.9,0.2l1.7,2.6l0.2,0.6l2.2-3.2l-1.1-0.2l0.1-0.8l1.8,0.1l2.4-0.1l0.1,0.8l-1.7,0.2l-3.1,3.7l3.7,5.2l1.4,0.2
					l-0.1,0.8l-2.7-0.1l-2.2,0.1l-0.1-0.8l1-0.2l-2.1-3l-0.2-0.5L263,19L264.1,19.2z"/>
				<path class="st0" d="M277.3,8.7c2.9,0,3.7,0.7,3.7,3.7V17c0,1,0.2,1.4,0.4,1.7h1.2l0.1,0.8l-3,0.6l-0.7-1.8l-2.8,2
					c-2,0-3.4-1.1-3.4-3c0-0.8,0.3-1.4,0.8-2.1l5.2-1.7v-1.2c0-1.4-0.1-2.2-1.4-2.2c-0.6,0-1.4,0.2-1.9,0.4l-0.4,1.8h-2v-1.8
					L277.3,8.7z M278.8,14.4l-3.4,1.4c-0.3,0.3-0.5,0.8-0.5,1.3c0,1.2,0.7,1.6,1.4,1.6c0.7,0,1.2-0.4,1.5-0.6l1-0.7V14.4z"/>
				<path class="st0" d="M289.9,10.3c-0.2-0.1-0.9-0.5-1.8-0.5s-1.8,0.5-1.8,1.4c0,0.7,0.6,1.2,1.6,1.7l1.8,0.9
					c1.6,0.8,2.2,1.7,2.2,3c0,2.1-1.7,2.9-4.4,3.5c-1.4,0-2.9-0.7-3.5-1.1l-0.4-2.6h1.5l0.8,1.9c0.5,0.3,1.2,0.6,1.9,0.6
					c1.2,0,1.9-0.8,1.9-1.8c0-0.9-0.5-1.3-1.7-1.9l-1.8-1c-1-0.5-2-1.4-2-2.7c0-1.6,1.5-2.5,4.2-3.1c1.3,0,2.6,0.6,3.3,1.1V12h-1.2
					L289.9,10.3z"/>
				<path class="st0" d="M303.8,8.7c2.9,0,3.7,0.7,3.7,3.7V17c0,1,0.2,1.4,0.4,1.7h1.2l0.1,0.8l-3,0.6l-0.7-1.8l-2.8,2
					c-2,0-3.4-1.1-3.4-3c0-0.8,0.3-1.4,0.8-2.1l5.2-1.7v-1.2c0-1.4-0.1-2.2-1.4-2.2c-0.6,0-1.4,0.2-1.9,0.4l-0.4,1.8h-2v-1.8
					L303.8,8.7z M305.2,14.4l-3.4,1.4c-0.3,0.3-0.5,0.8-0.5,1.3c0,1.2,0.7,1.6,1.4,1.6c0.7,0,1.2-0.4,1.5-0.6l1-0.7V14.4z"/>
				<path class="st0" d="M309,10.3V10l0.8-0.8h1.5V7.6l1.5-1.5h0.6v3.2h3.5v1.1h-3.5v6.8c0,0.7,0.3,1.4,1.2,1.4
					c0.7,0,1.2-0.2,1.8-0.6l0.4,0.8l-2.7,1.5c-2.6,0-3-0.9-3-3v-7L309,10.3z"/>
				<path class="st0" d="M326.8,14.5l-1.5,4.4l2,0.3l-0.1,0.8l-2.8-0.1l-2.5,0.1l-0.1-0.8l1.8-0.3l5.8-15.1l1.4-0.4l6.1,15.5
					l1.8,0.3l-0.1,0.8l-3.2-0.1l-3.1,0.1l-0.1-0.8l2-0.3l-1.6-4.4H326.8z M329.9,7.3L329.7,6l-2.6,7.4h5L329.9,7.3z"/>
				<path class="st0" d="M348.6,17c0,1,0.1,1.4,0.3,1.7h1.2l0.1,0.8l-3,0.6l-0.7-1.9l-3.4,2.1c-3.1,0-3.6-1.1-3.6-3.8v-6.1l-1.6,0.1
					l-0.1-0.9l2.8-0.6l1.2-0.1v7.8c0,1.2,0.5,1.8,1.7,1.8c0.7,0,1.7-0.6,2.5-1.2l0.5-0.3v-6.6l-1.4,0.1L345,9.6l2.6-0.6l1.2-0.1V17
					H348.6z"/>
				<path class="st0" d="M357.5,10.3c-0.2-0.1-0.9-0.5-1.8-0.5s-1.8,0.5-1.8,1.4c0,0.7,0.6,1.2,1.6,1.7l1.8,0.9
					c1.6,0.8,2.2,1.7,2.2,3c0,2.1-1.7,2.9-4.4,3.5c-1.4,0-2.9-0.7-3.5-1.1l-0.4-2.6h1.5l0.8,1.9c0.5,0.3,1.2,0.6,1.9,0.6
					c1.2,0,1.9-0.8,1.9-1.8c0-0.9-0.5-1.3-1.7-1.9l-1.8-1c-1-0.5-2-1.4-2-2.7c0-1.6,1.5-2.5,4.2-3.1c1.3,0,2.6,0.6,3.3,1.1V12H358
					L357.5,10.3z"/>
				<path class="st0" d="M360.3,10.3V10l0.8-0.8h1.5V7.6l1.5-1.5h0.6v3.2h3.5v1.1h-3.5v6.8c0,0.7,0.3,1.4,1.2,1.4
					c0.7,0,1.2-0.2,1.8-0.6l0.4,0.8l-2.7,1.5c-2.6,0-3-0.9-3-3v-7L360.3,10.3z"/>
				<path class="st0" d="M372.4,19.9l-2.7,0.1l-0.1-0.8l1.6-0.2v-8.5l-1.6,0.1l-0.1-0.8l2.8-0.7l1.2-0.1v10l1.7,0.2l-0.1,0.8
					L372.4,19.9z M371.3,3.9l1.7-0.1l0.7,0.1l0.1,1.3l-0.3,1.1l-1.7,0.1l-0.6-0.1L371,5L371.3,3.9z"/>
				<path class="st0" d="M379.1,19.9l-2.7,0.1l-0.1-0.8l1.6-0.2v-8.5l-1.6,0.1l-0.1-0.8L379,9l1-0.1l0.1,2l3.5-2.3
					c3,0,3.5,1,3.5,3.8V19l1.8,0.2l-0.1,0.8l-2.7-0.1l-2.2,0.1l-0.1-0.8L385,19v-6.7c0-1.2-0.5-1.7-1.5-1.7c-0.8,0-1.6,0.5-2.4,1.1
					l-0.7,0.5V19l1.3,0.2l-0.1,0.8L379.1,19.9z"/>
			</g>
		</g>
	</g>
	<g>
		<g>
			<path class="st1" d="M86.1,47.4l-0.9,4.9c-1.8,0.9-5.4,2.2-8.2,2.6c-6.3,0-12.2-4.3-12.2-12.1c0-7.9,5.2-11.7,12.8-12.7
				c3.5,0,6.6,1.6,8.1,2.6v4.6h-1.9l-1.1-3.1c-0.9-1-2.8-2.3-5.6-2.3c-5,0-8.4,3.5-8.4,10.2c0,5.5,3.3,11.1,9.3,11.1
				c2,0,3.5-1.1,4.4-1.9l1.8-3.7h1.9V47.4z"/>
			<path class="st1" d="M104.3,46c0,5-3.1,7.9-8.3,8.8c-4.5,0-7.5-3.5-7.5-8.1c0-5.1,3.1-7.9,8.3-8.8
				C101.2,37.9,104.3,41.5,104.3,46z M96.8,53.2c2.7,0,4.1-2.8,4.1-6.4c0-4.3-2.1-7.2-5-7.2c-2.7,0-4.1,2.8-4.1,6.5
				C91.8,49.9,93.8,53.2,96.8,53.2z"/>
			<path class="st1" d="M130.1,54.3l-3.2,0.1l-0.2-1.2l1.7-0.3v-9.7c0-1.8-0.7-2.5-2-2.5c-1,0-2.3,0.7-3.4,1.5l-1,0.7v10l1.5,0.3
				l-0.2,1.2l-2.9-0.1l-3,0.1l-0.2-1.2l1.5-0.3v-9.7c0-1.8-0.7-2.5-2-2.5c-1,0-2.3,0.7-3.4,1.5l-1,0.7v10l1.7,0.3l-0.2,1.2l-3-0.1
				l-3.9,0.1l-0.2-1.2l2.4-0.3V40.5l-2.4,0.2l-0.2-1.2l4.1-1l1.5-0.1l0.2,2.8L117,38c3.3,0,4.5,1,4.9,3.3l4.8-3.3c4.3,0,5,1.6,5,5.9
				v9l2.5,0.3l-0.2,1.2L130.1,54.3z"/>
			<path class="st1" d="M141,54.1v6.5l3.5,0.3l-0.2,1.2l-4.9-0.1l-3.9,0.1l-0.2-1.2l2.4-0.3V40.5l-2.4,0.2l-0.2-1.1l4.1-1l1.5-0.1
				l0.2,2.8l4.3-3.2c4.4,0,6.9,3,6.9,7.9c0,5.7-3.4,8.3-8.5,9C142.7,54.8,141.8,54.6,141,54.1z M145.3,40.5c-0.9,0-2,0.6-3.2,1.6
				l-1,0.8v8.5c0.8,1.2,2.2,1.9,3.7,1.9c2.4,0,4.1-2.4,4.1-6.3C148.8,42.9,147.3,40.5,145.3,40.5z"/>
			<path class="st1" d="M169.2,49.9c0,1.5,0.2,2,0.4,2.5h1.7l0.1,1.2l-4.4,0.8l-0.9-2.7l-4.9,3.1c-4.5,0-5.2-1.6-5.2-5.5v-8.8
				l-2.4,0.2l-0.2-1.3l4.1-0.9l1.7-0.1v11.2c0,1.8,0.7,2.5,2.4,2.5c1,0,2.4-0.8,3.7-1.7L166,50v-9.5l-2,0.2l-0.2-1.3l3.7-0.9
				l1.7-0.1V49.9z"/>
			<path class="st1" d="M172.7,40.4v-0.6l1.2-1.2h2.2v-2.2l2.2-2.2h0.9v4.6h5.1v1.5h-5.1v9.9c0,1,0.4,2,1.8,2c1,0,1.7-0.3,2.7-0.8
				l0.6,1.1l-4,2.2c-3.8,0-4.3-1.4-4.3-4.4v-9.9H172.7z"/>
			<path class="st1" d="M188.1,45.7c0,3.8,2.1,6.6,5.6,6.6c1.4,0,3-0.6,4.2-1.4l0.5,1.3c-1.6,1.1-3.7,2.1-5.9,2.7
				c-4.1,0-7.8-2.9-7.8-8.2c0-5,3-7.7,7.6-8.7c4.5,0,6,2.8,6,6.3v1.4L188.1,45.7z M194.9,44c0-2.6-0.5-4.4-3.1-4.4
				c-2.1,0-3.4,1.9-3.6,4.7L194.9,44z"/>
			<path class="st1" d="M207.9,42.8l3.8-4.7h2.7v3.4H212c-0.8,0.2-2.3,1.3-3.2,2.4l-0.7,0.8v8l3.5,0.3l-0.2,1.3l-4.9-0.1l-3.8,0.1
				l-0.2-1.2l2.4-0.3V40.5l-2.4,0.2l-0.2-1.2l4.1-1l1.4-0.1L207.9,42.8z"/>
			<path class="st1" d="M241.2,43.4l-3.5,5l4.1,4.4l1.7,0.3l-0.2,1.2h-2.5h-2.2l-2.9-3.2c-0.9,1-2.8,2.7-5.9,3.8
				c-4.4,0-7.9-2.5-7.9-6.2c0-4.4,3.4-6,5-7.3c-2-2.1-3-3.6-3-5.5c0-2.8,1.9-4.4,6.5-5.8c3.2,0,5.4,2.2,5.4,4.5
				c0,2.6-2.4,4.3-5.1,6.2l5.7,6.4l2.4-3.8l-1.5-0.3l0.2-1.1l2.6,0.1l3.2-0.1l0.2,1.1L241.2,43.4z M234.4,49.8l-6.5-7.3
				c-1.6,1.2-2.7,2.5-2.7,5.3c0,2.5,2,4.6,4.7,4.6C231.9,52.4,233.5,50.9,234.4,49.8z M229.6,39.6c2-1.6,2.7-2.6,2.7-4.6
				c0-1.9-1-3.3-2.6-3.3c-1.5,0-2.8,1.1-2.8,3.1C227,36.4,228.5,38.2,229.6,39.6z"/>
			<path class="st1" d="M258.5,30.7l6.7-0.1c6.9,0,11.1,4,11.1,11.2c0,7.3-3.8,11.7-11.5,12.5l-6.4-0.1l-4.6,0.1l-0.2-1.2l3-0.4
				V32.3l-3-0.4l0.2-1.2L258.5,30.7z M260.4,32.3v20.2l4.2,0.3c4.7,0,7.9-4.2,7.9-10.6c0-5.7-2.9-10.2-8.8-10.2L260.4,32.3z"/>
			<path class="st1" d="M285.4,37.9c4.3,0,5.3,1.1,5.3,5.4v6.6c0,1.5,0.2,2,0.6,2.5h1.7l0.1,1.2l-4.4,0.8l-1-2.6l-4,2.9
				c-2.9,0-5-1.6-5-4.3c0-1.2,0.4-2.1,1.2-3.1l7.6-2.5v-1.7c0-2-0.2-3.2-2-3.2c-0.9,0-2,0.3-2.8,0.6l-0.6,2.7h-2.9v-2.6L285.4,37.9z
				 M287.6,46.2l-4.9,2c-0.5,0.5-0.7,1.2-0.7,1.9c0,1.7,1,2.3,2,2.3c0.9,0,1.8-0.6,2.2-0.9l1.4-1V46.2z"/>
			<path class="st1" d="M293.3,40.4v-0.6l1.2-1.2h2.2v-2.2l2.2-2.2h0.9v4.6h5.1v1.5h-5.1v9.9c0,1,0.4,2,1.8,2c1,0,1.7-0.3,2.7-0.8
				l0.6,1.1l-4,2.2c-3.8,0-4.3-1.4-4.3-4.4v-9.9H293.3z"/>
			<path class="st1" d="M312.8,37.9c4.3,0,5.3,1.1,5.3,5.4v6.6c0,1.5,0.2,2,0.6,2.5h1.7l0.1,1.2l-4.4,0.8l-1-2.6l-4,2.9
				c-2.9,0-5-1.6-5-4.3c0-1.2,0.4-2.1,1.2-3.1l7.6-2.5v-1.7c0-2-0.2-3.2-2-3.2c-0.9,0-2,0.3-2.8,0.6l-0.6,2.7h-2.9v-2.6L312.8,37.9z
				 M314.9,46.2l-4.9,2c-0.5,0.5-0.7,1.2-0.7,1.9c0,1.7,1,2.3,2,2.3c0.9,0,1.8-0.6,2.2-0.9l1.4-1V46.2z"/>
			<path class="st1" d="M471.6,42c0,7.5-3.8,11.6-12.2,12.9c-6.8,0-11.5-5.1-11.5-11.9c0-7.5,3.8-11.5,12.2-12.9
				C467,30.1,471.6,35.2,471.6,42z M460.3,53.1c5.2,0,7.4-4.5,7.4-10c0-4.9-2.2-11.2-8.4-11.2c-5.2,0-7.5,4.5-7.5,10
				C451.9,46.9,454.1,53.1,460.3,53.1z"/>
			<path class="st1" d="M478.1,54.3l-3.9,0.1l-0.2-1.2l2.4-0.3V40.5l-2.4,0.2l-0.2-1.2l4.1-1l1.5-0.1l0.2,2.8l5-3.3
				c4.3,0,5,1.5,5,5.5v9.4l2.6,0.3l-0.2,1.2l-3.9-0.1l-3.2,0.1l-0.2-1.2l1.7-0.3v-9.7c0-1.8-0.8-2.5-2.2-2.5c-1.2,0-2.4,0.7-3.5,1.5
				l-1,0.7v10l1.9,0.3l-0.2,1.2L478.1,54.3z"/>
			<path class="st1" d="M497.6,54.3l-3.9,0.1l-0.2-1.2l2.4-0.3V32.5l-2.4,0.1l-0.2-1.2l4.1-1l1.7-0.1v22.6l2.5,0.3l-0.2,1.2
				L497.6,54.3z"/>
			<path class="st1" d="M507.5,54.3l-3.9,0.1l-0.2-1.2l2.4-0.3V40.5l-2.4,0.2l-0.2-1.2l4.1-1l1.7-0.1v14.5l2.5,0.3l-0.2,1.2
				L507.5,54.3z M505.9,31l2.4-0.2l0.9,0.2l0.2,1.9l-0.4,1.6l-2.4,0.2l-0.9-0.2l-0.2-1.9L505.9,31z"/>
			<path class="st1" d="M517.4,54.3l-3.9,0.1l-0.2-1.2l2.4-0.3V40.5l-2.4,0.2l-0.2-1.2l4.1-1l1.5-0.1l0.2,2.8l5-3.3
				c4.3,0,5,1.5,5,5.5v9.4l2.6,0.3l-0.2,1.2l-3.9-0.1l-3.2,0.1l-0.2-1.2l1.7-0.3v-9.7c0-1.8-0.8-2.5-2.2-2.5c-1.2,0-2.4,0.7-3.5,1.5
				l-1,0.7v10l1.9,0.3l-0.2,1.2L517.4,54.3z"/>
			<path class="st1" d="M536.4,45.7c0,3.8,2.1,6.6,5.6,6.6c1.4,0,3-0.6,4.2-1.4l0.5,1.3c-1.6,1.1-3.7,2.1-5.9,2.7
				c-4.1,0-7.8-2.9-7.8-8.2c0-5,3-7.7,7.6-8.7c4.5,0,6,2.8,6,6.3v1.4L536.4,45.7z M543.2,44c0-2.6-0.5-4.4-3.1-4.4
				c-2.1,0-3.4,1.9-3.6,4.7L543.2,44z"/>
		</g>
		<g>
			<path class="st1" d="M333.6,51c1,1.3,2.9,2.1,4.8,2.1c2.9,0,4.6-1.8,4.6-4.3c0-2.3-1.5-3.6-3.5-4.5l-4.1-1.8
				c-2.4-1.1-4.4-2.6-4.4-5.6c0-3.7,3.4-5.9,8.1-6.9c2.1,0,4.5,0.7,6.2,2v4.6h-1.7l-1-3.1c-0.9-0.9-2-1.7-4-1.7
				c-2.7,0-4.3,1.5-4.3,3.7c0,1.9,1.3,3,3.2,3.8l3.9,1.7c2.7,1.2,5,2.8,5,6.3c0,3.2-2.2,6.3-8.6,7.6c-3.1,0-5.2-0.9-7-2.3l-0.7-4.6
				h2.4L333.6,51z"/>
			<path class="st1" d="M358.7,40.2c-0.5-0.4-1.1-0.5-2-0.5c-2.3,0-4.1,2.6-4.1,6.3c0,3.6,2,6.3,5.3,6.3c1.3,0,2.6-0.6,3.8-1.4
				l0.5,1.3c-1.6,1.1-3.3,2-5.5,2.7c-4.3,0-7.6-2.8-7.6-8.1s3.9-7.9,8.1-8.9c1.6,0,3.7,0.8,4.7,1.7V43h-2.5L358.7,40.2z"/>
			<path class="st1" d="M368.5,54.3l-3.9,0.1l-0.2-1.2l2.4-0.3V40.5l-2.4,0.2l-0.2-1.2l4.1-1.1l1.7-0.1v14.6l2.5,0.3l-0.2,1.2
				L368.5,54.3z M366.8,30.9l2.4-0.2l0.9,0.2l0.2,1.9l-0.4,1.6l-2.4,0.2l-0.9-0.2l-0.2-1.9L366.8,30.9z"/>
			<path class="st1" d="M377.7,45.7c0,3.9,2.1,6.6,5.6,6.6c1.4,0,3-0.6,4.2-1.4l0.5,1.3c-1.6,1.1-3.8,2.1-5.9,2.7
				c-4.1,0-7.8-2.9-7.8-8.2c0-5,3-7.7,7.7-8.7c4.5,0,6,2.8,6,6.4v1.4L377.7,45.7L377.7,45.7z M384.6,44c0-2.6-0.5-4.4-3.1-4.4
				c-2.1,0-3.4,1.9-3.7,4.8L384.6,44z"/>
			<path class="st1" d="M394.6,54.3l-3.9,0.1l-0.2-1.2l2.4-0.3V40.5l-2.4,0.2l-0.2-1.2l4.1-1.1l1.5-0.1l0.2,2.9l5-3.3
				c4.3,0,5.1,1.5,5.1,5.5v9.4l2.6,0.3l-0.2,1.2l-3.9-0.1l-3.3,0.1l-0.2-1.2l1.7-0.3v-9.7c0-1.8-0.8-2.5-2.2-2.5
				c-1.2,0-2.4,0.7-3.5,1.5l-1,0.7v10l1.9,0.3l-0.2,1.2L394.6,54.3z"/>
			<path class="st1" d="M420.1,40.2c-0.5-0.4-1.1-0.5-2-0.5c-2.3,0-4.1,2.6-4.1,6.3c0,3.6,2,6.3,5.3,6.3c1.3,0,2.6-0.6,3.8-1.4
				l0.5,1.3c-1.6,1.1-3.3,2-5.5,2.7c-4.3,0-7.6-2.8-7.6-8.1s3.9-7.9,8.1-8.9c1.6,0,3.7,0.8,4.7,1.7V43h-2.5L420.1,40.2z"/>
			<path class="st1" d="M429.1,45.7c0,3.9,2.1,6.6,5.6,6.6c1.4,0,3-0.6,4.2-1.4l0.5,1.3c-1.6,1.1-3.8,2.1-5.9,2.7
				c-4.1,0-7.8-2.9-7.8-8.2c0-5,3-7.7,7.7-8.7c4.5,0,6,2.8,6,6.4v1.4L429.1,45.7L429.1,45.7z M436,44c0-2.6-0.5-4.4-3.1-4.4
				c-2.1,0-3.4,1.9-3.7,4.8L436,44z"/>
		</g>
	</g>
</g>
</svg>
